<svg xmlns="http://www.w3.org/2000/svg" version="1.1" xmlns:xlink="http://www.w3.org/1999/xlink" xmlns:svgjs="http://svgjs.dev/svgjs" width="1500" height="968" viewBox="0 0 1500 968"><g transform="matrix(1,0,0,1,0.15999999999996817,-0.5791960000000245)"><svg viewBox="0 0 375 242" data-background-color="#096a2e" preserveAspectRatio="xMidYMid meet" height="968" width="1500" xmlns="http://www.w3.org/2000/svg" xmlns:xlink="http://www.w3.org/1999/xlink"><g id="tight-bounds" transform="matrix(1,0,0,1,-0.03976000000000113,0.14479900000000612)"><svg viewBox="0 0 375.07953 241.710402" height="241.710402" width="375.07953"><g><svg></svg></g><g><svg viewBox="0 0 375.07953 241.710402" height="241.710402" width="375.07953"><g transform="matrix(1,0,0,1,-10.22024,-5.489570000000015)"><path d="M10.22 241.71v-236.22h375.08v236.22h-17.309l0-4.008h13.301v-228.204h-367.064v228.204h29.941l0 4.008z" fill="#ffffff" fill-rule="nonzero" stroke="none" stroke-width="1" stroke-linecap="butt" stroke-linejoin="miter" stroke-miterlimit="10" stroke-dasharray="" stroke-dashoffset="0" font-family="none" font-weight="none" font-size="none" text-anchor="none" style="mix-blend-mode: normal" data-fill-palette-color="tertiary"></path><g><path transform="translate(55.2748,244.10165) scale(0.36027,0.36027)" d="M14 0.6v0c-2.413 0-4.477-0.47-6.19-1.41-1.707-0.947-3.01-2.353-3.91-4.22-0.9-1.867-1.35-4.173-1.35-6.92v0-7.63c0-4.1 1.013-7.277 3.04-9.53 2.027-2.26 5.013-3.39 8.96-3.39v0c1.967 0 3.63 0.207 4.99 0.62 1.36 0.42 2.507 0.87 3.44 1.35v0l0.42 3.78c-0.713-0.42-1.467-0.79-2.26-1.11-0.793-0.327-1.67-0.583-2.63-0.77-0.96-0.18-2.063-0.27-3.31-0.27v0c-2.867 0-5.003 0.8-6.41 2.4-1.407 1.6-2.11 3.95-2.11 7.05v0 7.95c0 1.913 0.29 3.513 0.87 4.8 0.587 1.28 1.43 2.237 2.53 2.87 1.1 0.633 2.433 0.95 4 0.95v0c2.233 0 3.883-0.593 4.95-1.78 1.067-1.193 1.6-2.723 1.6-4.59v0-1.5c0-1.32-0.207-2.45-0.62-3.39-0.407-0.94-1.06-1.667-1.96-2.18-0.9-0.52-2.073-0.78-3.52-0.78v0c-1.367 0-2.59 0.25-3.67 0.75-1.073 0.5-1.98 1.213-2.72 2.14-0.74 0.92-1.293 2.013-1.66 3.28v0l-0.4-3.5h0.72c0.353-1.133 0.9-2.153 1.64-3.06 0.74-0.907 1.71-1.623 2.91-2.15 1.2-0.527 2.65-0.79 4.35-0.79v0c3 0 5.253 0.843 6.76 2.53 1.513 1.68 2.27 4.037 2.27 7.07v0 1.63c0 2.947-0.9 5.317-2.7 7.11-1.8 1.793-4.477 2.69-8.03 2.69zM38.2 0.55v0c-1.347 0-2.593-0.103-3.74-0.31-1.14-0.213-2.143-0.473-3.01-0.78-0.867-0.307-1.583-0.603-2.15-0.89v0l-0.4-4.05c1.12 0.633 2.447 1.19 3.98 1.67 1.533 0.473 3.2 0.71 5 0.71v0c1.733 0 3.127-0.227 4.18-0.68 1.06-0.447 1.833-1.087 2.32-1.92 0.48-0.833 0.72-1.84 0.72-3.02v0-0.61c0-1.2-0.22-2.19-0.66-2.97-0.44-0.787-1.16-1.373-2.16-1.76-1-0.393-2.343-0.6-4.03-0.62v0l-5.27-0.1v-3.27l5.35-0.1c1.613-0.033 2.903-0.257 3.87-0.67 0.967-0.42 1.66-1.01 2.08-1.77 0.413-0.76 0.62-1.663 0.62-2.71v0-0.43c0-1.713-0.513-3.017-1.54-3.91-1.02-0.893-2.747-1.34-5.18-1.34v0c-1.82 0-3.503 0.247-5.05 0.74-1.553 0.493-2.903 1.057-4.05 1.69v0l0.37-3.63c0.987-0.6 2.267-1.137 3.84-1.61 1.573-0.473 3.427-0.71 5.56-0.71v0c3.52 0 6.107 0.717 7.76 2.15 1.66 1.433 2.49 3.433 2.49 6v0 0.55c0 1.28-0.213 2.413-0.64 3.4-0.42 0.98-1.08 1.777-1.98 2.39-0.9 0.607-2.077 1.01-3.53 1.21v0l-0.02 0.57-0.1-0.45c2.313 0.333 3.983 1.097 5.01 2.29 1.027 1.193 1.54 2.863 1.54 5.01v0 0.91c0 2.813-0.907 5.02-2.72 6.62-1.807 1.6-4.627 2.4-8.46 2.4zM62.78 0.55v0c-1.353 0-2.6-0.103-3.74-0.31-1.14-0.213-2.143-0.473-3.01-0.78-0.867-0.307-1.583-0.603-2.15-0.89v0l-0.4-4.05c1.113 0.633 2.437 1.19 3.97 1.67 1.533 0.473 3.2 0.71 5 0.71v0c1.733 0 3.13-0.227 4.19-0.68 1.06-0.447 1.83-1.087 2.31-1.92 0.487-0.833 0.73-1.84 0.73-3.02v0-0.61c0-1.2-0.223-2.19-0.67-2.97-0.44-0.787-1.16-1.373-2.16-1.76-1-0.393-2.34-0.6-4.02-0.62v0l-5.28-0.1v-3.27l5.35-0.1c1.62-0.033 2.913-0.257 3.88-0.67 0.967-0.42 1.657-1.01 2.07-1.77 0.42-0.76 0.63-1.663 0.63-2.71v0-0.43c0-1.713-0.513-3.017-1.54-3.91-1.027-0.893-2.757-1.34-5.19-1.34v0c-1.813 0-3.497 0.247-5.05 0.74-1.547 0.493-2.897 1.057-4.05 1.69v0l0.38-3.63c0.98-0.6 2.257-1.137 3.83-1.61 1.58-0.473 3.437-0.71 5.57-0.71v0c3.513 0 6.1 0.717 7.76 2.15 1.66 1.433 2.49 3.433 2.49 6v0 0.55c0 1.28-0.213 2.413-0.64 3.4-0.427 0.98-1.09 1.777-1.99 2.39-0.9 0.607-2.073 1.01-3.52 1.21v0l-0.03 0.57-0.1-0.45c2.32 0.333 3.99 1.097 5.01 2.29 1.027 1.193 1.54 2.863 1.54 5.01v0 0.91c0 2.813-0.903 5.02-2.71 6.62-1.807 1.6-4.627 2.4-8.46 2.4zM87.35 0.55v0c-1.347 0-2.593-0.103-3.74-0.31-1.14-0.213-2.143-0.473-3.01-0.78-0.867-0.307-1.583-0.603-2.15-0.89v0l-0.4-4.05c1.12 0.633 2.447 1.19 3.98 1.67 1.533 0.473 3.2 0.71 5 0.71v0c1.733 0 3.127-0.227 4.18-0.68 1.06-0.447 1.833-1.087 2.32-1.92 0.48-0.833 0.72-1.84 0.72-3.02v0-0.61c0-1.2-0.22-2.19-0.66-2.97-0.44-0.787-1.16-1.373-2.16-1.76-1-0.393-2.343-0.6-4.03-0.62v0l-5.27-0.1v-3.27l5.35-0.1c1.613-0.033 2.903-0.257 3.87-0.67 0.967-0.42 1.66-1.01 2.08-1.77 0.413-0.76 0.62-1.663 0.62-2.71v0-0.43c0-1.713-0.513-3.017-1.54-3.91-1.02-0.893-2.747-1.34-5.18-1.34v0c-1.82 0-3.503 0.247-5.05 0.74-1.553 0.493-2.903 1.057-4.05 1.69v0l0.37-3.63c0.987-0.6 2.267-1.137 3.84-1.61 1.573-0.473 3.427-0.71 5.56-0.71v0c3.52 0 6.107 0.717 7.76 2.15 1.66 1.433 2.49 3.433 2.49 6v0 0.55c0 1.28-0.213 2.413-0.64 3.4-0.42 0.98-1.08 1.777-1.98 2.39-0.9 0.607-2.077 1.01-3.53 1.21v0l-0.02 0.57-0.1-0.45c2.313 0.333 3.983 1.097 5.01 2.29 1.027 1.193 1.54 2.863 1.54 5.01v0 0.91c0 2.813-0.907 5.02-2.72 6.62-1.807 1.6-4.627 2.4-8.46 2.4zM114.9 0.6v0c-3.8 0-6.663-1.067-8.59-3.2-1.92-2.133-2.88-5.21-2.88-9.23v0-8.3c0-4.013 0.957-7.087 2.87-9.22 1.92-2.133 4.787-3.2 8.6-3.2v0c3.8 0 6.663 1.067 8.59 3.2 1.927 2.133 2.89 5.207 2.89 9.22v0 8.3c0 4.02-0.963 7.097-2.89 9.23-1.927 2.133-4.79 3.2-8.59 3.2zM114.9-2.88v0c2.467 0 4.297-0.753 5.49-2.26 1.193-1.507 1.79-3.677 1.79-6.51v0-8.63c0-2.847-0.597-5.023-1.79-6.53-1.193-1.513-3.023-2.27-5.49-2.27v0c-2.467 0-4.297 0.757-5.49 2.27-1.187 1.507-1.78 3.683-1.78 6.53v0 8.63c0 2.833 0.593 5.003 1.78 6.51 1.193 1.507 3.023 2.26 5.49 2.26zM148.55-31.95v31.95h-4.15v-31.95zM146.63 0v-3.53h16.84v3.53zM178.53 0.55v0c-3.72 0-6.52-0.91-8.4-2.73-1.887-1.813-2.83-4.413-2.83-7.8v0-4.35c0-3.433 0.873-6.077 2.62-7.93 1.753-1.86 4.313-2.79 7.68-2.79v0c2.267 0 4.16 0.42 5.68 1.26 1.513 0.84 2.653 2.037 3.42 3.59 0.767 1.547 1.15 3.397 1.15 5.55v0 0.9c0 0.533-0.02 1.067-0.06 1.6-0.047 0.533-0.1 1.057-0.16 1.57v0h-3.73c0.033-0.8 0.053-1.557 0.06-2.27 0.007-0.72 0.01-1.38 0.01-1.98v0c0-1.48-0.237-2.733-0.71-3.76-0.473-1.027-1.18-1.81-2.12-2.35-0.947-0.54-2.127-0.81-3.54-0.81v0c-2.1 0-3.673 0.607-4.72 1.82-1.053 1.22-1.58 2.963-1.58 5.23v0 2.32l0.02 0.5v2.33c0 1.013 0.153 1.93 0.46 2.75 0.293 0.813 0.763 1.517 1.41 2.11 0.64 0.593 1.457 1.043 2.45 1.35 0.993 0.307 2.17 0.46 3.53 0.46v0c1.587 0 3.063-0.207 4.43-0.62 1.367-0.42 2.65-0.987 3.85-1.7v0l-0.38 3.5c-1.08 0.68-2.337 1.227-3.77 1.64-1.433 0.407-3.023 0.61-4.77 0.61zM186.78-10.58h-17.36v-3.05h17.36zM231.5-2.7v3.65l-13.5-0.35c-4.8-0.133-8.313-1.287-10.54-3.46-2.227-2.18-3.34-5.327-3.34-9.44v0-7.38c0-4.133 1.05-7.31 3.15-9.53 2.1-2.227 5.167-3.34 9.2-3.34v0c2.7 0 4.967 0.497 6.8 1.49 1.833 0.987 3.217 2.44 4.15 4.36 0.933 1.913 1.4 4.253 1.4 7.02v0 6.78c0 1.633-0.183 3.053-0.55 4.26-0.367 1.207-0.877 2.22-1.53 3.04-0.66 0.813-1.44 1.463-2.34 1.95-0.9 0.48-1.9 0.813-3 1v0l-0.08 0.17zM217.27-2.88v0h0.55c0.933-0.18 1.813-0.49 2.64-0.93 0.827-0.447 1.553-1.037 2.18-1.77 0.62-0.733 1.107-1.64 1.46-2.72 0.347-1.087 0.52-2.363 0.52-3.83v0-7.72c0-2.967-0.683-5.247-2.05-6.84-1.367-1.593-3.4-2.39-6.1-2.39v0c-2.68 0-4.703 0.797-6.07 2.39-1.367 1.593-2.05 3.873-2.05 6.84v0 7.72c0 2.933 0.773 5.183 2.32 6.75 1.553 1.567 3.753 2.4 6.6 2.5zM234.47-24.4h4.03v15.18c0 1.28 0.18 2.4 0.54 3.36 0.353 0.96 0.94 1.7 1.76 2.22 0.813 0.527 1.913 0.79 3.3 0.79v0c1.3 0 2.417-0.237 3.35-0.71 0.933-0.48 1.697-1.137 2.29-1.97 0.587-0.833 0.99-1.773 1.21-2.82v0l0.72 2.87h-0.87c-0.253 1.1-0.713 2.107-1.38 3.02-0.667 0.907-1.56 1.63-2.68 2.17-1.127 0.547-2.517 0.82-4.17 0.82v0c-1.913 0-3.467-0.363-4.66-1.09-1.193-0.727-2.063-1.787-2.61-3.18-0.553-1.393-0.83-3.073-0.83-5.04v0zM250.77-24.4h4.05v24.4h-4.05l0.18-5.85-0.18-0.25zM279.92 0h-4.02l0.17-5.93-0.15-0.62v-7.78l0.03-1.42c0-1.987-0.503-3.453-1.51-4.4-1.013-0.953-2.61-1.43-4.79-1.43v0c-1.753 0-3.357 0.25-4.81 0.75-1.46 0.5-2.757 1.087-3.89 1.76v0l0.37-3.46c0.633-0.38 1.39-0.757 2.27-1.13 0.873-0.38 1.873-0.693 3-0.94 1.12-0.253 2.357-0.38 3.71-0.38v0c1.747 0 3.233 0.213 4.46 0.64 1.227 0.427 2.22 1.04 2.98 1.84 0.753 0.8 1.307 1.767 1.66 2.9 0.347 1.133 0.52 2.4 0.52 3.8v0zM267.5 0.53v0c-2.42 0-4.273-0.59-5.56-1.77-1.293-1.173-1.94-2.853-1.94-5.04v0-0.72c0-2.253 0.697-3.933 2.09-5.04 1.387-1.107 3.597-1.877 6.63-2.31v0l7.73-1.1 0.22 2.95-7.45 1.07c-1.867 0.267-3.2 0.723-4 1.37-0.8 0.64-1.2 1.583-1.2 2.83v0 0.4c0 1.287 0.397 2.27 1.19 2.95 0.793 0.687 1.98 1.03 3.56 1.03v0c1.4 0 2.6-0.243 3.6-0.73 1-0.48 1.81-1.13 2.43-1.95 0.613-0.813 1.03-1.72 1.25-2.72v0l0.62 2.75h-0.77c-0.233 1.067-0.67 2.057-1.31 2.97-0.647 0.92-1.543 1.66-2.69 2.22-1.153 0.56-2.62 0.84-4.4 0.84zM289.97-14.93v0l-0.92-3.12 1-0.05c0.533-2.067 1.45-3.697 2.75-4.89 1.3-1.193 3.023-1.79 5.17-1.79v0c0.533 0 1.013 0.043 1.44 0.13 0.427 0.08 0.807 0.18 1.14 0.3v0l0.25 3.92c-0.42-0.133-0.883-0.24-1.39-0.32-0.507-0.087-1.07-0.13-1.69-0.13v0c-1.833 0-3.427 0.51-4.78 1.53-1.36 1.02-2.35 2.493-2.97 4.42zM290.17 0h-4.05v-24.4h3.95l-0.2 7.2 0.3 0.3zM313.65 0.5v0c-1.887 0-3.403-0.283-4.55-0.85-1.153-0.567-1.987-1.427-2.5-2.58-0.52-1.147-0.78-2.58-0.78-4.3v0-15.4h4v14.93c0 1.6 0.367 2.78 1.1 3.54 0.733 0.753 1.967 1.13 3.7 1.13v0c0.987 0 1.933-0.107 2.84-0.32 0.907-0.22 1.76-0.53 2.56-0.93v0l-0.37 3.48c-0.787 0.4-1.703 0.717-2.75 0.95-1.053 0.233-2.137 0.35-3.25 0.35zM319.4-20.8h-17.58v-3.25h17.95zM309.72-23.65h-3.87l-0.03-6.85 4.08-0.53zM328.67 0h-4.05v-24.4h4.05zM326.65-28.4v0c-0.833 0-1.453-0.22-1.86-0.66-0.413-0.447-0.62-1.053-0.62-1.82v0-0.12c0-0.787 0.207-1.397 0.62-1.83 0.407-0.433 1.027-0.65 1.86-0.65v0c0.833 0 1.457 0.217 1.87 0.65 0.42 0.433 0.63 1.043 0.63 1.83v0 0.12c0 0.787-0.21 1.397-0.63 1.83-0.413 0.433-1.037 0.65-1.87 0.65zM345.62 0.55v0c-3.713 0-6.513-0.91-8.4-2.73-1.88-1.813-2.82-4.413-2.82-7.8v0-4.35c0-3.433 0.873-6.077 2.62-7.93 1.753-1.86 4.313-2.79 7.68-2.79v0c2.267 0 4.157 0.42 5.67 1.26 1.52 0.84 2.663 2.037 3.43 3.59 0.767 1.547 1.15 3.397 1.15 5.55v0 0.9c0 0.533-0.02 1.067-0.06 1.6-0.047 0.533-0.103 1.057-0.17 1.57v0h-3.72c0.033-0.8 0.053-1.557 0.06-2.27 0.007-0.72 0.01-1.38 0.01-1.98v0c0-1.48-0.237-2.733-0.71-3.76-0.473-1.027-1.18-1.81-2.12-2.35-0.947-0.54-2.127-0.81-3.54-0.81v0c-2.1 0-3.677 0.607-4.73 1.82-1.047 1.22-1.57 2.963-1.57 5.23v0 2.32l0.02 0.5v2.33c0 1.013 0.15 1.93 0.45 2.75 0.3 0.813 0.773 1.517 1.42 2.11 0.64 0.593 1.457 1.043 2.45 1.35 0.987 0.307 2.163 0.46 3.53 0.46v0c1.587 0 3.063-0.207 4.43-0.62 1.367-0.42 2.65-0.987 3.85-1.7v0l-0.38 3.5c-1.08 0.68-2.337 1.227-3.77 1.64-1.433 0.407-3.027 0.61-4.78 0.61zM353.87-10.58h-17.35v-3.05h17.35zM364.2-14.93v0l-0.93-3.12 1-0.05c0.533-2.067 1.45-3.697 2.75-4.89 1.3-1.193 3.027-1.79 5.18-1.79v0c0.533 0 1.013 0.043 1.44 0.13 0.42 0.08 0.797 0.18 1.13 0.3v0l0.25 3.92c-0.413-0.133-0.873-0.24-1.38-0.32-0.513-0.087-1.077-0.13-1.69-0.13v0c-1.833 0-3.43 0.51-4.79 1.53-1.36 1.02-2.347 2.493-2.96 4.42zM364.4 0h-4.05v-24.4h3.95l-0.2 7.2 0.3 0.3zM378.52-6.78h3.9c0.053 0.32 0.11 0.733 0.17 1.24 0.053 0.507 0.08 1.053 0.08 1.64v0c0 2-0.277 3.85-0.83 5.55-0.56 1.7-1.517 3.343-2.87 4.93v0l-2.8-0.9c0.867-1.387 1.51-2.837 1.93-4.35 0.413-1.52 0.62-3.207 0.62-5.06v0c0-0.547-0.017-1.067-0.05-1.56-0.033-0.493-0.083-0.99-0.15-1.49zM412.32-10.63h-9.17v-3.45h9.07c2.187 0 3.77-0.543 4.75-1.63 0.987-1.093 1.48-2.6 1.48-4.52v0-2.17c0-1.953-0.487-3.463-1.46-4.53-0.98-1.067-2.553-1.6-4.72-1.6v0h-9.15v-3.42h9.23c3.567 0 6.163 0.837 7.79 2.51 1.62 1.673 2.43 3.977 2.43 6.91v0 2.4c0 2.967-0.82 5.293-2.46 6.98-1.64 1.68-4.237 2.52-7.79 2.52zM404.55 0h-4.1v-31.95h4.07v18.9l0.03 1.85zM427.7-24.4h4.02v15.18c0 1.28 0.18 2.4 0.54 3.36 0.36 0.96 0.947 1.7 1.76 2.22 0.82 0.527 1.92 0.79 3.3 0.79v0c1.3 0 2.417-0.237 3.35-0.71 0.933-0.48 1.697-1.137 2.29-1.97 0.593-0.833 0.997-1.773 1.21-2.82v0l0.73 2.87h-0.88c-0.247 1.1-0.703 2.107-1.37 3.02-0.667 0.907-1.563 1.63-2.69 2.17-1.127 0.547-2.513 0.82-4.16 0.82v0c-1.92 0-3.473-0.363-4.66-1.09-1.193-0.727-2.067-1.787-2.62-3.18-0.547-1.393-0.82-3.073-0.82-5.04v0zM444-24.4h4.05v24.4h-4.05l0.17-5.85-0.17-0.25zM463.3-3.78h2.32l-2.12 0.93 7.3-21.55h4.17l-11.47 33h-4.1l3.85-11.15 1.77 1.55h-4.6l-7.97-23.4h4.2zM498.97 0.53v0c-2.933 0-5.167-0.91-6.7-2.73-1.533-1.82-2.3-4.47-2.3-7.95v0-4.03c0-3.5 0.777-6.17 2.33-8.01 1.547-1.84 3.83-2.76 6.85-2.76v0c1.5 0 2.8 0.253 3.9 0.76 1.1 0.507 1.99 1.22 2.67 2.14 0.687 0.913 1.147 1.997 1.38 3.25v0h1.32l-1.2 3.72c-0.047-1.433-0.367-2.637-0.96-3.61-0.593-0.973-1.393-1.71-2.4-2.21-1.007-0.5-2.16-0.75-3.46-0.75v0c-2.067 0-3.647 0.6-4.74 1.8-1.093 1.2-1.64 2.967-1.64 5.3v0 4.65c0 2.3 0.547 4.05 1.64 5.25 1.093 1.2 2.673 1.8 4.74 1.8v0c1.233 0 2.323-0.237 3.27-0.71 0.953-0.48 1.743-1.14 2.37-1.98 0.62-0.84 1.047-1.793 1.28-2.86v0l1 2.9h-1.2c-0.233 1.1-0.677 2.107-1.33 3.02-0.66 0.92-1.543 1.65-2.65 2.19-1.113 0.547-2.503 0.82-4.17 0.82zM511.17 0h-4.05l0.18-5.9-0.08-1.3v-10.2l0.03-0.85-0.1-6.93v-7.95h4.02zM517.47-24.4h4.03v15.18c0 1.28 0.18 2.4 0.54 3.36 0.353 0.96 0.94 1.7 1.76 2.22 0.813 0.527 1.913 0.79 3.3 0.79v0c1.3 0 2.417-0.237 3.35-0.71 0.933-0.48 1.697-1.137 2.29-1.97 0.587-0.833 0.99-1.773 1.21-2.82v0l0.72 2.87h-0.87c-0.253 1.1-0.713 2.107-1.38 3.02-0.667 0.907-1.56 1.63-2.68 2.17-1.127 0.547-2.517 0.82-4.17 0.82v0c-1.913 0-3.467-0.363-4.66-1.09-1.193-0.727-2.063-1.787-2.61-3.18-0.553-1.393-0.83-3.073-0.83-5.04v0zM533.77-24.4h4.05v24.4h-4.05l0.18-5.85-0.18-0.25zM567.17 0h-7.9v-3.5h7.75c2.833 0 4.963-0.77 6.39-2.31 1.427-1.547 2.14-3.753 2.14-6.62v0-7.12c0-2.887-0.713-5.097-2.14-6.63-1.427-1.533-3.557-2.3-6.39-2.3v0h-7.77v-3.47h7.92c4.133 0 7.26 1.063 9.38 3.19 2.113 2.12 3.17 5.18 3.17 9.18v0 7.18c0 3.98-1.057 7.043-3.17 9.19-2.12 2.14-5.247 3.21-9.38 3.21zM560.57 0h-4.1v-31.95h4.1zM595.27 0.63v0c-3.5 0-6.153-0.947-7.96-2.84-1.807-1.893-2.71-4.617-2.71-8.17v0-3.72c0-3.533 0.907-6.243 2.72-8.13 1.82-1.88 4.47-2.82 7.95-2.82v0c3.5 0 6.157 0.94 7.97 2.82 1.807 1.887 2.71 4.597 2.71 8.13v0 3.72c0 3.553-0.903 6.277-2.71 8.17-1.813 1.893-4.47 2.84-7.97 2.84zM595.27-2.68v0c2.167 0 3.813-0.64 4.94-1.92 1.127-1.287 1.69-3.137 1.69-5.55v0-4.18c0-2.4-0.563-4.237-1.69-5.51-1.127-1.273-2.773-1.91-4.94-1.91v0c-2.147 0-3.787 0.637-4.92 1.91-1.133 1.273-1.7 3.11-1.7 5.51v0 4.18c0 2.413 0.567 4.263 1.7 5.55 1.133 1.28 2.773 1.92 4.92 1.92zM588.32-27.48l4.78-6.67h4.37l4.78 6.67v0.05h-3.23l-3.65-4.45h-0.17l-3.65 4.45h-3.23zM646.1 0h-4.05v-15.28c0-1.28-0.163-2.39-0.49-3.33-0.327-0.947-0.86-1.677-1.6-2.19-0.74-0.52-1.737-0.78-2.99-0.78v0c-1.18 0-2.203 0.243-3.07 0.73-0.867 0.48-1.567 1.127-2.1 1.94-0.533 0.807-0.91 1.727-1.13 2.76v0l-0.62-2.88h0.5c0.267-1.047 0.717-2.02 1.35-2.92 0.633-0.9 1.49-1.627 2.57-2.18 1.087-0.547 2.43-0.82 4.03-0.82v0c1.813 0 3.277 0.357 4.39 1.07 1.107 0.72 1.917 1.767 2.43 3.14 0.52 1.373 0.78 3.043 0.78 5.01v0zM615.62 0h-4.05v-24.4h4.05l-0.17 5.85 0.17 0.25zM630.85 0h-4.03v-15.28c0-1.28-0.16-2.39-0.48-3.33-0.327-0.947-0.857-1.677-1.59-2.19-0.733-0.52-1.727-0.78-2.98-0.78v0c-1.2 0-2.233 0.243-3.1 0.73-0.867 0.48-1.567 1.133-2.1 1.96-0.533 0.827-0.907 1.767-1.12 2.82v0l-0.75-2.88h0.9c0.247-1.1 0.68-2.103 1.3-3.01 0.613-0.913 1.45-1.64 2.51-2.18 1.06-0.54 2.347-0.81 3.86-0.81v0c2.253 0 3.967 0.583 5.14 1.75 1.173 1.167 1.91 2.867 2.21 5.1v0c0.087 0.333 0.147 0.697 0.18 1.09 0.033 0.387 0.05 0.773 0.05 1.16v0zM662.62 0.55v0c-3.713 0-6.513-0.91-8.4-2.73-1.88-1.813-2.82-4.413-2.82-7.8v0-4.35c0-3.433 0.873-6.077 2.62-7.93 1.753-1.86 4.313-2.79 7.68-2.79v0c2.267 0 4.157 0.42 5.67 1.26 1.52 0.84 2.663 2.037 3.43 3.59 0.767 1.547 1.15 3.397 1.15 5.55v0 0.9c0 0.533-0.02 1.067-0.06 1.6-0.047 0.533-0.103 1.057-0.17 1.57v0h-3.72c0.033-0.8 0.053-1.557 0.06-2.27 0.007-0.72 0.01-1.38 0.01-1.98v0c0-1.48-0.237-2.733-0.71-3.76-0.473-1.027-1.18-1.81-2.12-2.35-0.947-0.54-2.127-0.81-3.54-0.81v0c-2.1 0-3.677 0.607-4.73 1.82-1.047 1.22-1.57 2.963-1.57 5.23v0 2.32l0.02 0.5v2.33c0 1.013 0.15 1.93 0.45 2.75 0.3 0.813 0.773 1.517 1.42 2.11 0.64 0.593 1.457 1.043 2.45 1.35 0.987 0.307 2.163 0.46 3.53 0.46v0c1.587 0 3.063-0.207 4.43-0.62 1.367-0.42 2.65-0.987 3.85-1.7v0l-0.38 3.5c-1.08 0.68-2.337 1.227-3.77 1.64-1.433 0.407-3.027 0.61-4.78 0.61zM670.87-10.58h-17.35v-3.05h17.35zM676.87-6.78h3.9c0.053 0.32 0.11 0.733 0.17 1.24 0.053 0.507 0.08 1.053 0.08 1.64v0c0 2-0.277 3.85-0.83 5.55-0.56 1.7-1.517 3.343-2.87 4.93v0l-2.8-0.9c0.867-1.387 1.51-2.837 1.93-4.35 0.413-1.52 0.62-3.207 0.62-5.06v0c0-0.547-0.017-1.067-0.05-1.56-0.033-0.493-0.083-0.99-0.15-1.49zM702.95 0h-4.15v-31.95h4.15zM717.62-13.38h-16.47v-3.47h16.47zM718-28.48h-18v-3.47h18zM727.2-14.93v0l-0.93-3.12 1-0.05c0.533-2.067 1.45-3.697 2.75-4.89 1.3-1.193 3.027-1.79 5.18-1.79v0c0.533 0 1.013 0.043 1.44 0.13 0.42 0.08 0.797 0.18 1.13 0.3v0l0.25 3.92c-0.413-0.133-0.873-0.24-1.38-0.32-0.513-0.087-1.077-0.13-1.69-0.13v0c-1.833 0-3.43 0.51-4.79 1.53-1.36 1.02-2.347 2.493-2.96 4.42zM727.4 0h-4.05v-24.4h3.95l-0.2 7.2 0.3 0.3zM760.5 0h-4.03l0.18-5.93-0.15-0.62v-7.78l0.02-1.42c0-1.987-0.503-3.453-1.51-4.4-1.007-0.953-2.603-1.43-4.79-1.43v0c-1.747 0-3.35 0.25-4.81 0.75-1.46 0.5-2.757 1.087-3.89 1.76v0l0.38-3.46c0.633-0.38 1.387-0.757 2.26-1.13 0.873-0.38 1.873-0.693 3-0.94 1.127-0.253 2.363-0.38 3.71-0.38v0c1.753 0 3.243 0.213 4.47 0.64 1.22 0.427 2.21 1.04 2.97 1.84 0.76 0.8 1.313 1.767 1.66 2.9 0.353 1.133 0.53 2.4 0.53 3.8v0zM748.07 0.53v0c-2.413 0-4.267-0.59-5.56-1.77-1.293-1.173-1.94-2.853-1.94-5.04v0-0.72c0-2.253 0.697-3.933 2.09-5.04 1.393-1.107 3.607-1.877 6.64-2.31v0l7.72-1.1 0.23 2.95-7.45 1.07c-1.867 0.267-3.2 0.723-4 1.37-0.8 0.64-1.2 1.583-1.2 2.83v0 0.4c0 1.287 0.397 2.27 1.19 2.95 0.787 0.687 1.973 1.03 3.56 1.03v0c1.4 0 2.6-0.243 3.6-0.73 1-0.48 1.807-1.13 2.42-1.95 0.62-0.813 1.037-1.72 1.25-2.72v0l0.63 2.75h-0.78c-0.233 1.067-0.67 2.057-1.31 2.97-0.64 0.92-1.537 1.66-2.69 2.22-1.147 0.56-2.613 0.84-4.4 0.84zM787.07 0h-4.05v-15.18c0-1.313-0.177-2.443-0.53-3.39-0.36-0.953-0.943-1.693-1.75-2.22-0.813-0.527-1.92-0.79-3.32-0.79v0c-1.28 0-2.39 0.243-3.33 0.73-0.947 0.48-1.71 1.133-2.29 1.96-0.587 0.827-0.997 1.767-1.23 2.82v0l-0.72-2.88h0.87c0.267-1.1 0.733-2.103 1.4-3.01 0.667-0.913 1.563-1.64 2.69-2.18 1.127-0.54 2.507-0.81 4.14-0.81v0c1.933 0 3.497 0.367 4.69 1.1 1.187 0.733 2.057 1.787 2.61 3.16 0.547 1.373 0.82 3.06 0.82 5.06v0zM770.75 0h-4.05v-24.4h4.05l-0.18 5.85 0.18 0.23zM802.75 0.55v0c-3.5 0-6.103-0.947-7.81-2.84-1.713-1.893-2.57-4.573-2.57-8.04v0-3.8c0-3.48 0.86-6.157 2.58-8.03 1.713-1.88 4.313-2.82 7.8-2.82v0c1.033 0 1.973 0.097 2.82 0.29 0.853 0.193 1.617 0.443 2.29 0.75 0.673 0.307 1.243 0.627 1.71 0.96v0l0.35 3.53c-0.78-0.6-1.707-1.11-2.78-1.53-1.08-0.413-2.343-0.62-3.79-0.62v0c-2.333 0-4.07 0.647-5.21 1.94-1.147 1.287-1.72 3.163-1.72 5.63v0 3.6c0 2.42 0.573 4.28 1.72 5.58 1.14 1.3 2.877 1.95 5.21 1.95v0c1.5 0 2.797-0.21 3.89-0.63 1.087-0.413 2.057-0.92 2.91-1.52v0l-0.38 3.57c-0.733 0.5-1.69 0.963-2.87 1.39-1.187 0.427-2.57 0.64-4.15 0.64zM825.3 0.55v0c-3.72 0-6.52-0.91-8.4-2.73-1.887-1.813-2.83-4.413-2.83-7.8v0-4.35c0-3.433 0.877-6.077 2.63-7.93 1.747-1.86 4.303-2.79 7.67-2.79v0c2.267 0 4.16 0.42 5.68 1.26 1.513 0.84 2.653 2.037 3.42 3.59 0.767 1.547 1.15 3.397 1.15 5.55v0 0.9c0 0.533-0.02 1.067-0.06 1.6-0.04 0.533-0.093 1.057-0.16 1.57v0h-3.73c0.033-0.8 0.057-1.557 0.07-2.27 0.007-0.72 0.01-1.38 0.01-1.98v0c0-1.48-0.237-2.733-0.71-3.76-0.48-1.027-1.19-1.81-2.13-2.35-0.94-0.54-2.12-0.81-3.54-0.81v0c-2.1 0-3.673 0.607-4.72 1.82-1.053 1.22-1.58 2.963-1.58 5.23v0 2.32l0.03 0.5v2.33c0 1.013 0.15 1.93 0.45 2.75 0.3 0.813 0.77 1.517 1.41 2.11 0.64 0.593 1.457 1.043 2.45 1.35 0.993 0.307 2.173 0.46 3.54 0.46v0c1.58 0 3.053-0.207 4.42-0.62 1.367-0.42 2.65-0.987 3.85-1.7v0l-0.37 3.5c-1.087 0.68-2.347 1.227-3.78 1.64-1.433 0.407-3.023 0.61-4.77 0.61zM833.55-10.58h-17.35v-3.05h17.35z" fill="#ffffff" fill-rule="nonzero" stroke="none" stroke-width="1" stroke-linecap="butt" stroke-linejoin="miter" stroke-miterlimit="10" stroke-dasharray="" stroke-dashoffset="0" font-family="none" font-weight="none" font-size="none" text-anchor="none" style="mix-blend-mode: normal" data-fill-palette-color="secondary" id="text-1"></path></g></g><g transform="matrix(1,0,0,1,29.33176499999999,41.48127517670282)"><svg viewBox="0 0 316.416 158.74785164659434" height="158.74785164659434" width="316.416"><g><svg viewBox="0 0 316.416 158.74785164659434" height="158.74785164659434" width="316.416"><g><svg viewBox="0 0 316.416 158.74785164659434" height="158.74785164659434" width="316.416"><g transform="matrix(1,0,0,1,0,114.30128354300476)"><svg viewBox="0 0 316.416 44.44656810358958" height="44.44656810358958" width="316.416"><g id="textblocktransform"><svg viewBox="0 0 316.416 44.44656810358958" height="44.44656810358958" width="316.416" id="textblock"><g><svg viewBox="0 0 316.416 44.44656810358958" height="44.44656810358958" width="316.416"><g transform="matrix(1,0,0,1,0,0)"><svg width="316.416" viewBox="2.6 -33.48 305.02 42.86" height="44.44656810358958" data-palette-color="#ffffff"><path d="M14.45 0.58L14.45 0.58Q8.53 0.58 5.56-2.75 2.6-6.08 2.6-12.2L2.6-12.2 2.6-19.78Q2.6-25.9 5.55-29.21 8.5-32.52 14.4-32.52L14.4-32.52Q16.3-32.52 17.86-32.18 19.43-31.83 20.65-31.28 21.88-30.73 22.73-30.13L22.73-30.13 23.08-26.28Q21.6-27.33 19.61-28.11 17.63-28.9 14.95-28.9L14.95-28.9Q10.93-28.9 8.88-26.51 6.83-24.13 6.83-19.73L6.83-19.73 6.83-12.35Q6.83-7.98 8.9-5.56 10.98-3.15 15.1-3.15L15.1-3.15Q17.75-3.15 19.79-3.93 21.83-4.7 23.33-5.83L23.33-5.83 22.98-1.88Q22.13-1.28 20.88-0.7 19.63-0.13 18.01 0.23 16.4 0.58 14.45 0.58ZM47.17-15.8L47.17 0 43.15 0 43.32-5.93 43.17-6.55 43.17-14.33 43.2-15.75Q43.2-18.73 41.69-20.15 40.17-21.58 36.9-21.58L36.9-21.58Q34.27-21.58 32.09-20.83 29.9-20.08 28.2-19.07L28.2-19.07 28.57-22.53Q29.52-23.1 30.84-23.66 32.15-24.23 33.84-24.6 35.52-24.98 37.55-24.98L37.55-24.98Q40.17-24.98 42.01-24.34 43.85-23.7 44.98-22.5 46.12-21.3 46.65-19.6 47.17-17.9 47.17-15.8L47.17-15.8ZM34.75 0.53L34.75 0.53Q31.12 0.53 29.18-1.24 27.25-3 27.25-6.28L27.25-6.28 27.25-7Q27.25-10.38 29.34-12.04 31.42-13.7 35.97-14.35L35.97-14.35 43.7-15.45 43.92-12.5 36.47-11.43Q33.67-11.03 32.47-10.06 31.27-9.1 31.27-7.23L31.27-7.23 31.27-6.83Q31.27-4.9 32.46-3.88 33.65-2.85 36.02-2.85L36.02-2.85Q38.12-2.85 39.62-3.58 41.12-4.3 42.05-5.53 42.97-6.75 43.3-8.25L43.3-8.25 43.92-5.5 43.15-5.5Q42.8-3.9 41.84-2.53 40.87-1.15 39.15-0.31 37.42 0.53 34.75 0.53ZM87.9-15.73L87.9 0 83.84 0 83.84-15.28Q83.84-17.2 83.36-18.61 82.87-20.03 81.76-20.8 80.65-21.58 78.77-21.58L78.77-21.58Q77-21.58 75.7-20.85 74.4-20.13 73.6-18.91 72.8-17.7 72.47-16.15L72.47-16.15 71.85-19.03 72.35-19.03Q72.75-20.6 73.7-21.95 74.65-23.3 76.27-24.13 77.9-24.95 80.3-24.95L80.3-24.95Q83.02-24.95 84.68-23.88 86.34-22.8 87.12-20.74 87.9-18.68 87.9-15.73L87.9-15.73ZM57.42-18.3L57.42 0 53.37 0 53.37-24.4 57.42-24.4 57.25-18.55 57.42-18.3ZM72.65-15.85L72.65 0 68.62 0 68.62-15.28Q68.62-17.2 68.13-18.61 67.65-20.03 66.55-20.8 65.45-21.58 63.57-21.58L63.57-21.58Q61.77-21.58 60.47-20.85 59.17-20.13 58.37-18.89 57.57-17.65 57.25-16.07L57.25-16.07 56.5-18.95 57.4-18.95Q57.77-20.6 58.7-21.96 59.62-23.33 61.21-24.14 62.8-24.95 65.07-24.95L65.07-24.95Q68.45-24.95 70.21-23.2 71.97-21.45 72.42-18.1L72.42-18.1Q72.55-17.6 72.6-17.01 72.65-16.43 72.65-15.85L72.65-15.85ZM106.19 0.53L106.19 0.53Q103.94 0.53 102.29-0.23 100.64-0.98 99.62-2.38 98.59-3.78 98.24-5.63L98.24-5.63 96.92-5.63 98.09-9.43Q98.19-7.23 99.08-5.76 99.97-4.3 101.49-3.58 103.02-2.85 104.94-2.85L104.94-2.85Q108.02-2.85 109.66-4.65 111.29-6.45 111.29-9.93L111.29-9.93 111.29-14.6Q111.29-18.05 109.67-19.85 108.04-21.65 104.94-21.65L104.94-21.65Q103.09-21.65 101.67-20.93 100.24-20.2 99.31-18.95 98.37-17.7 98.02-16.1L98.02-16.1 97.02-18.93 98.19-18.93Q98.59-20.6 99.56-21.96 100.52-23.33 102.21-24.14 103.89-24.95 106.37-24.95L106.37-24.95Q110.77-24.95 113.07-22.21 115.37-19.48 115.37-14.28L115.37-14.28 115.37-10.23Q115.37-4.98 113.06-2.23 110.74 0.53 106.19 0.53ZM98.19 0.68L98.19 8.6 94.17 8.6 94.17-24.4 98.22-24.4 98.04-18.53 98.09-17.28 98.09-7 98.07-6.18 98.19 0.68ZM125.14-24.4L125.14 0 121.09 0 121.09-24.4 125.14-24.4ZM123.12-28.4L123.12-28.4Q121.87-28.4 121.25-29.06 120.64-29.73 120.64-30.88L120.64-30.88 120.64-31Q120.64-32.18 121.25-32.83 121.87-33.48 123.12-33.48L123.12-33.48Q124.37-33.48 124.99-32.83 125.62-32.18 125.62-31L125.62-31 125.62-30.88Q125.62-29.7 124.99-29.05 124.37-28.4 123.12-28.4ZM152.21-15.63L152.21 0 148.16 0 148.16-15.18Q148.16-17.15 147.63-18.57 147.09-20 145.88-20.79 144.66-21.58 142.56-21.58L142.56-21.58Q140.64-21.58 139.22-20.85 137.81-20.13 136.94-18.89 136.06-17.65 135.71-16.07L135.71-16.07 134.99-18.95 135.86-18.95Q136.26-20.6 137.26-21.96 138.26-23.33 139.95-24.14 141.64-24.95 144.09-24.95L144.09-24.95Q146.99-24.95 148.78-23.85 150.56-22.75 151.39-20.69 152.21-18.63 152.21-15.63L152.21-15.63ZM135.89-18.32L135.89 0 131.84 0 131.84-24.4 135.89-24.4 135.71-18.55 135.89-18.32ZM167.99-7.3L167.99-7.3Q163.01-7.3 160.35-9.47 157.69-11.65 157.69-15.7L157.69-15.7 157.69-16.32Q157.69-18.85 158.72-20.73 159.76-22.6 162.03-23.66 164.31-24.73 167.99-24.83L167.99-24.83 180.44-25.23 180.44-22.03 173.09-22.28 173.06-22.1Q174.78-21.75 175.88-20.9 176.99-20.05 177.52-18.78 178.06-17.5 178.06-15.8L178.06-15.8 178.06-15.25Q178.06-11.38 175.51-9.34 172.96-7.3 167.99-7.3ZM167.81 6.15L167.81 6.15 168.38 6.15Q170.63 6.15 172.25 5.81 173.86 5.48 174.74 4.75 175.61 4.03 175.61 2.83L175.61 2.83 175.61 2.73Q175.61 1.33 174.6 0.59 173.59-0.15 171.13-0.38L171.13-0.38 164.24-1 165.38-1.05Q163.99-0.85 162.92-0.4 161.86 0.05 161.26 0.79 160.66 1.53 160.66 2.63L160.66 2.63 160.66 2.68Q160.66 3.95 161.53 4.73 162.41 5.5 164.01 5.83 165.61 6.15 167.81 6.15ZM168.31 9.38L168.31 9.38 167.59 9.38Q164.28 9.38 161.9 8.81 159.51 8.25 158.2 6.99 156.88 5.73 156.88 3.6L156.88 3.6 156.88 3.5Q156.88 2 157.6 1 158.31 0 159.52-0.58 160.74-1.15 162.24-1.35L162.24-1.35 162.21-1.5Q160.16-1.85 159.19-2.71 158.21-3.58 158.21-4.95L158.21-4.95 158.21-4.98Q158.21-5.93 158.65-6.6 159.09-7.28 159.97-7.68 160.86-8.08 162.24-8.18L162.24-8.18 162.24-8.68 166.88-7.5 164.99-7.55Q163.28-7.53 162.63-7.14 161.99-6.75 161.99-5.98L161.99-5.98 161.99-5.95Q161.99-5.13 162.91-4.7 163.84-4.28 166.06-4.03L166.06-4.03 171.99-3.43Q175.86-3.03 177.63-1.56 179.41-0.1 179.41 2.75L179.41 2.75 179.41 2.88Q179.41 5.15 178.06 6.6 176.71 8.05 174.24 8.71 171.76 9.38 168.31 9.38ZM167.94-10.3L167.94-10.3Q170.03-10.3 171.42-10.91 172.81-11.53 173.52-12.76 174.24-14 174.24-15.8L174.24-15.8 174.24-16.4Q174.24-18.15 173.55-19.38 172.86-20.6 171.49-21.24 170.11-21.88 168.03-21.88L168.03-21.88 167.88-21.88Q165.63-21.88 164.22-21.19 162.81-20.5 162.17-19.26 161.53-18.03 161.53-16.38L161.53-16.38 161.53-15.8Q161.53-14 162.25-12.78 162.96-11.55 164.38-10.93 165.81-10.3 167.94-10.3ZM205.63-29.15L196.86 0 192.66 0 202.66-31.95 209.21-31.95 219.23 0 215.03 0 206.25-29.15 205.63-29.15ZM213.21-12.88L213.21-9.43 198.66-9.43 198.66-12.88 213.21-12.88ZM227.88-24.4L227.88 0 223.83 0 223.83-24.4 227.88-24.4ZM225.85-28.4L225.85-28.4Q224.6-28.4 223.99-29.06 223.38-29.73 223.38-30.88L223.38-30.88 223.38-31Q223.38-32.18 223.99-32.83 224.6-33.48 225.85-33.48L225.85-33.48Q227.1-33.48 227.73-32.83 228.35-32.18 228.35-31L228.35-31 228.35-30.88Q228.35-29.7 227.73-29.05 227.1-28.4 225.85-28.4ZM251.73-21.38L238.15-3.35 251.83-3.35 251.83 0 233.3 0 233.3-3.05 246.88-21.08 233.35-21.08 233.35-24.4 251.73-24.4 251.73-21.38ZM261.27-24.4L261.27 0 257.22 0 257.22-24.4 261.27-24.4ZM259.25-28.4L259.25-28.4Q258-28.4 257.39-29.06 256.77-29.73 256.77-30.88L256.77-30.88 256.77-31Q256.77-32.18 257.39-32.83 258-33.48 259.25-33.48L259.25-33.48Q260.5-33.48 261.12-32.83 261.75-32.18 261.75-31L261.75-31 261.75-30.88Q261.75-29.7 261.12-29.05 260.5-28.4 259.25-28.4ZM278.22 0.55L278.22 0.55Q272.65 0.55 269.82-2.18 267-4.9 267-9.98L267-9.98 267-14.33Q267-19.48 269.62-22.26 272.25-25.05 277.3-25.05L277.3-25.05Q280.69-25.05 282.97-23.79 285.25-22.53 286.4-20.2 287.55-17.88 287.55-14.65L287.55-14.65 287.55-13.75Q287.55-12.95 287.48-12.15 287.42-11.35 287.32-10.58L287.32-10.58 283.6-10.58Q283.65-11.78 283.66-12.85 283.67-13.93 283.67-14.83L283.67-14.83Q283.67-17.05 282.96-18.59 282.25-20.13 280.83-20.94 279.42-21.75 277.3-21.75L277.3-21.75Q274.15-21.75 272.57-19.93 271-18.1 271-14.7L271-14.7 271-12.38 271.02-11.88 271.02-9.55Q271.02-8.03 271.47-6.8 271.92-5.58 272.88-4.69 273.85-3.8 275.33-3.34 276.82-2.88 278.87-2.88L278.87-2.88Q281.25-2.88 283.3-3.5 285.35-4.13 287.15-5.2L287.15-5.2 286.77-1.7Q285.15-0.68 283-0.06 280.85 0.55 278.22 0.55ZM286.47-13.63L286.47-10.58 269.12-10.58 269.12-13.63 286.47-13.63ZM296.79-14.93L296.79-14.93 295.87-18.05 296.87-18.1Q297.67-21.2 299.62-22.99 301.57-24.78 304.79-24.78L304.79-24.78Q305.59-24.78 306.23-24.65 306.87-24.53 307.37-24.35L307.37-24.35 307.62-20.43Q306.99-20.63 306.23-20.75 305.47-20.88 304.54-20.88L304.54-20.88Q301.79-20.88 299.76-19.35 297.72-17.82 296.79-14.93ZM296.99-16.9L296.99 0 292.94 0 292.94-24.4 296.89-24.4 296.69-17.2 296.99-16.9Z" opacity="1" transform="matrix(1,0,0,1,0,0)" fill="#ffffff" class="wordmark-text-0" data-fill-palette-color="primary" id="text-0"></path></svg></g></svg></g></svg></g></svg></g><g transform="matrix(1,0,0,1,95.19271721971063,0)"><svg viewBox="0 0 126.03056556057872 103.80851553138174" height="103.80851553138174" width="126.03056556057872"><g><svg xmlns="http://www.w3.org/2000/svg" xmlns:xlink="http://www.w3.org/1999/xlink" version="1.1" x="0" y="0" viewBox="5.848 13.633 88.304 72.73400000000001" enable-background="new 0 0 100 100" xml:space="preserve" height="103.80851553138174" width="126.03056556057872" class="icon-icon-0" data-fill-palette-color="accent" id="icon-0"><g fill="#ffffff" data-fill-palette-color="accent"><rect x="61.619" y="33.904" width="2.102" height="4.663" fill="#ffffff" data-fill-palette-color="accent"></rect><polygon points="70.632,33.279 67.066,28.013 69.744,28.013 65.673,22.001 68.222,22.001 62.67,13.802 57.117,22.001    59.666,22.001 55.595,28.013 58.273,28.013 54.707,33.279  " fill="#ffffff" data-fill-palette-color="accent"></polygon><rect x="35.357" y="33.008" width="2.026" height="4.495" fill="#ffffff" data-fill-palette-color="accent"></rect><polygon points="44.045,32.407 40.607,27.33 43.189,27.33 39.265,21.536 41.721,21.536 36.37,13.633 31.018,21.536 33.474,21.536    29.551,27.33 32.132,27.33 28.694,32.407  " fill="#ffffff" data-fill-palette-color="accent"></polygon><rect x="14.095" y="52.314" width="2.507" height="5.563" fill="#ffffff" data-fill-palette-color="accent"></rect><polygon points="24.849,51.569 20.594,45.286 23.789,45.286 18.932,38.113 21.973,38.113 15.349,28.331 8.724,38.113    11.765,38.113 6.908,45.286 10.103,45.286 5.848,51.569  " fill="#ffffff" data-fill-palette-color="accent"></polygon><rect x="83.398" y="52.314" width="2.507" height="5.563" fill="#ffffff" data-fill-palette-color="accent"></rect><polygon points="94.152,51.569 89.897,45.286 93.092,45.286 88.235,38.113 91.276,38.113 84.651,28.331 78.027,38.113    81.068,38.113 76.211,45.286 79.406,45.286 75.151,51.569  " fill="#ffffff" data-fill-palette-color="accent"></polygon><polygon points="35.844,49.773 22.446,75.06 27.902,77.25 35.043,66.631 41.742,82.806 50.611,86.367  " fill="#ffffff" data-fill-palette-color="accent"></polygon><polygon points="37.413,48.813 63.363,40.864 78.365,74.306 53.021,86.367  " fill="#ffffff" data-fill-palette-color="accent"></polygon></g></svg></g></svg></g><g></g></svg></g></svg></g></svg></g></svg></g><defs></defs></svg><rect width="375.07953" height="241.710402" fill="none" stroke="none" visibility="hidden"></rect></g></svg></g></svg>